<?xml version="1.0" encoding="UTF-8" standalone="no"?><!DOCTYPE svg PUBLIC "-//W3C//DTD SVG 1.1//EN" "http://www.w3.org/Graphics/SVG/1.1/DTD/svg11.dtd"><svg width="100%" height="100%" viewBox="0 0 100 100" version="1.1" xmlns="http://www.w3.org/2000/svg" xmlns:xlink="http://www.w3.org/1999/xlink" xml:space="preserve" style="fill-rule:evenodd;clip-rule:evenodd;stroke-linejoin:round;stroke-miterlimit:1.41421;"><path d="M100,13.71c0,-7.572 -6.138,-13.71 -13.71,-13.71c-19.092,0 -53.488,0 -72.58,0c-7.572,0 -13.71,6.138 -13.71,13.71c0,19.092 0,53.488 0,72.58c0,7.572 6.138,13.71 13.71,13.71c19.092,0 53.488,0 72.58,0c7.572,0 13.71,-6.138 13.71,-13.71c0,-19.092 0,-53.488 0,-72.58Zm-4.839,0.403c0,-2.46 -0.977,-4.819 -2.716,-6.558c-1.739,-1.739 -4.098,-2.716 -6.558,-2.716c-17.331,0 -54.443,0 -71.774,0c-2.46,0 -4.819,0.977 -6.558,2.716c-1.739,1.739 -2.716,4.098 -2.716,6.558c0,17.331 0,54.443 0,71.774c0,2.46 0.977,4.819 2.716,6.558c1.739,1.739 4.098,2.716 6.558,2.716c17.331,0 54.443,0 71.774,0c2.46,0 4.819,-0.977 6.558,-2.716c1.739,-1.739 2.716,-4.098 2.716,-6.558c0,-17.331 0,-54.443 0,-71.774Zm-4.838,0.403c0,-2.672 -2.167,-4.839 -4.839,-4.839c-14.358,0 -56.61,0 -70.968,0c-2.672,0 -4.839,2.167 -4.839,4.839c0,14.358 0,56.61 0,70.968c0,2.672 2.167,4.839 4.839,4.839c14.358,0 56.61,0 70.968,0c2.672,0 4.839,-2.167 4.839,-4.839c0,-14.358 0,-56.61 0,-70.968Zm-60.484,53.226c0,0.428 0.17,0.838 0.472,1.14c0.303,0.303 0.713,0.473 1.141,0.473c7.369,0 37.792,0 45.161,0c0.891,0 1.613,0.722 1.613,1.613c0,1.405 0,3.433 0,4.838c0,0.428 -0.17,0.838 -0.473,1.141c-0.302,0.302 -0.712,0.472 -1.14,0.472c-8.184,0 -45.042,0 -53.226,0c-0.428,0 -0.838,-0.17 -1.14,-0.472c-0.303,-0.303 -0.473,-0.713 -0.473,-1.141c0,-5.136 0,-21.073 0,-26.209c0,-0.428 0.17,-0.838 0.473,-1.141c0.302,-0.302 0.712,-0.472 1.14,-0.472c1.406,0 3.433,0 4.839,0c0.428,0 0.838,0.17 1.14,0.472c0.303,0.303 0.473,0.713 0.473,1.141c0,3.969 0,14.176 0,18.145Zm42.338,-36.29c0,-0.428 -0.17,-0.838 -0.472,-1.141c-0.302,-0.302 -0.713,-0.472 -1.14,-0.472c-1.406,0 -3.434,0 -4.839,0c-0.428,0 -0.838,0.17 -1.141,0.472c-0.302,0.303 -0.472,0.713 -0.472,1.141c0,1.405 0,3.433 0,4.838c0,0.428 0.17,0.838 0.472,1.141c0.303,0.302 0.713,0.472 1.141,0.472c1.405,0 3.433,0 4.839,0c0.427,0 0.838,-0.17 1.14,-0.472c0.302,-0.303 0.472,-0.713 0.472,-1.141c0,-1.405 0,-3.433 0,-4.838Zm-30.242,-2.017c0,-0.427 -0.169,-0.838 -0.472,-1.14c-0.302,-0.302 -0.713,-0.472 -1.14,-0.472c-3.777,0 -13.159,0 -16.936,0c-0.428,0 -0.838,0.17 -1.14,0.472c-0.303,0.302 -0.473,0.713 -0.473,1.14c0,1.406 0,3.434 0,4.839c0,0.428 0.17,0.838 0.473,1.141c0.302,0.302 0.712,0.472 1.14,0.472c3.777,0 13.159,0 16.936,0c0.427,0 0.838,-0.17 1.14,-0.472c0.303,-0.303 0.472,-0.713 0.472,-1.141c0,-1.405 0,-3.433 0,-4.839Zm37.246,1.123c-0.764,0.205 -1.563,-0.174 -1.888,-0.895c-1.585,-3.467 -5.088,-5.873 -9.148,-5.873c-4.06,0 -7.563,2.406 -9.159,5.868c-0.323,0.715 -1.116,1.091 -1.873,0.888c-0.838,-0.211 -1.905,-0.497 -2.786,-0.733c-0.447,-0.12 -0.821,-0.426 -1.027,-0.84c-0.206,-0.415 -0.224,-0.898 -0.049,-1.326c2.447,-5.814 8.196,-9.905 14.894,-9.905c6.698,0 12.448,4.091 14.884,9.909c0.174,0.425 0.156,0.905 -0.049,1.317c-0.204,0.411 -0.576,0.715 -1.02,0.834c-0.877,0.247 -1.944,0.533 -2.779,0.756Z" style="fill:#748dff;"/></svg>